<svg width="10" height="6" viewBox="0 0 10 6" fill="none" xmlns="http://www.w3.org/2000/svg">
<path d="M0.939832 0.815544C0.980472 0.774801 1.02875 0.742476 1.0819 0.72042C1.13506 0.698364 1.19204 0.687012 1.24958 0.687012C1.30713 0.687012 1.36411 0.698364 1.41726 0.72042C1.47038 0.742464 1.51864 0.774766 1.55927 0.815477L1.55923 0.81544L1.47084 0.903813L1.55933 0.815544L0.939832 0.815544ZM0.939832 0.815544L1.02833 0.90382L0.939832 0.815544ZM5.11935 5.16427L5.16726 5.27972C5.11411 5.30177 5.05713 5.31313 4.99958 5.31313C4.94204 5.31313 4.88505 5.30177 4.8319 5.27972C4.7788 5.25768 4.73056 5.2254 4.68994 5.18471C4.68991 5.18467 4.68987 5.18463 4.68983 5.1846L0.940056 1.43482C0.940031 1.4348 0.940006 1.43477 0.939981 1.43475L5.11935 5.16427ZM5.11935 5.16427L5.16726 5.27972C5.22036 5.25768 5.2686 5.2254 5.30922 5.18471L5.11935 5.16427ZM8.43994 0.81544L4.99958 4.2564L5.30933 5.1846L9.05922 1.43471C9.09988 1.39405 9.13214 1.34577 9.15415 1.29264C9.17615 1.23952 9.18748 1.18257 9.18748 1.12507C9.18748 1.06757 9.17615 1.01062 9.15415 0.957496C9.13214 0.904366 9.09988 0.856093 9.05922 0.815432C9.01856 0.774769 8.97029 0.742514 8.91716 0.720508C8.86403 0.698502 8.80709 0.687175 8.74958 0.687175C8.69208 0.687175 8.63514 0.698502 8.58201 0.720508L8.62984 0.835993L8.58201 0.720508C8.52888 0.742514 8.48061 0.77477 8.43994 0.815432L8.43994 0.81544Z" fill="#272727" stroke="#272727" stroke-width="0.25"/>
</svg>
